<mxfile host="app.diagrams.net" modified="2023-10-17T04:11:40.739Z" agent="Mozilla/5.0 (Macintosh; Intel Mac OS X 10_15_7) AppleWebKit/537.36 (KHTML, like Gecko) Chrome/118.0.0.0 Safari/537.36" version="22.0.4" etag="kCKlvEENa-AZp7Dga15B" type="github">
  <diagram name="페이지-1" id="rTQGmxl6-ba3utbrr3KM">
    <mxGraphModel>
      <root>
        <mxCell id="0" />
        <mxCell id="1" parent="0" />
      </root>
    </mxGraphModel>
  </diagram>
</mxfile>
